 <svg
      width="62"
      height="30"
      viewBox="0 0 62 30"
      fill="none"
      className="scale-85"
      xmlns="http://www.w3.org/2000/svg"
    >
      <rect width="62" height="30" rx="5" fill="#866BF8" fillOpacity="0.05" />
      <path
        d="M16.508 11.228V18.584H20.18V20H14.972V11.228H16.508ZM28.7712 15.608C28.7712 18.272 27.0192 20.144 24.4992 20.144C21.9912 20.144 20.2632 18.284 20.2632 15.608C20.2632 12.944 22.0032 11.072 24.5112 11.072C27.0192 11.072 28.7712 12.932 28.7712 15.608ZM27.1512 15.608C27.1512 13.736 26.1192 12.548 24.5112 12.548C22.9032 12.548 21.8712 13.736 21.8712 15.608C21.8712 17.48 22.9032 18.668 24.5112 18.668C26.1192 18.668 27.1512 17.456 27.1512 15.608ZM33.8008 12.524C32.0608 12.524 31.0648 13.784 31.0648 15.68C31.0648 17.636 32.1928 18.704 33.8128 18.704C35.3368 18.704 36.2608 17.864 36.2608 16.46V16.424H33.6088V15.068H37.6888V20H36.3928L36.2968 18.992C35.8168 19.664 34.8208 20.132 33.6328 20.132C31.1728 20.132 29.4568 18.344 29.4568 15.644C29.4568 12.98 31.1968 11.084 33.8368 11.084C35.8408 11.084 37.3888 12.248 37.6408 14.036H36.0208C35.7448 13.004 34.8568 12.524 33.8008 12.524ZM47.1115 15.608C47.1115 18.272 45.3595 20.144 42.8395 20.144C40.3315 20.144 38.6035 18.284 38.6035 15.608C38.6035 12.944 40.3435 11.072 42.8515 11.072C45.3595 11.072 47.1115 12.932 47.1115 15.608ZM45.4915 15.608C45.4915 13.736 44.4595 12.548 42.8515 12.548C41.2435 12.548 40.2115 13.736 40.2115 15.608C40.2115 17.48 41.2435 18.668 42.8515 18.668C44.4595 18.668 45.4915 17.456 45.4915 15.608Z"
        fill="#fff"
      />
    </svg>